C:\Users\u0088756\Documents\documenten\software\SoftwareProjects\DC_TrackingSimulation\Data\FitMuscleFunctions\dummy_motion_LeftSubtalar.mot
nRows=16
nColumns=17

name C:\Users\u0088756\Documents\documenten\software\SoftwareProjects\DC_TrackingSimulation\Data\FitMuscleFunctions\dummy_motion_LeftSubtalar.mot
datacolumns 17
datarows 16
range 0.0100000000 0.1600000000
endheader
time	first_body_list	first_body_rotation	first_body_tilt	first_body_tx	first_body_ty	first_body_tz	subtalar_angle_l	ankle_angle_l	knee_angle_l	hip_flexion_l	hip_adduction_l	hip_rotation_l	lumbar_extension	lumbar_bending	lumbar_rotation	mtp_angle_l
        0.0100000000	        0.0000000000	        0.0000000000	        0.0000000000	        0.0000000000	        0.0000000000	        0.0000000000	       23.6281523098	       14.0013988383	      -95.6125819705	       68.2762817879	       36.5251807028	        5.8273431952	       41.2719400330	       21.8752182385	       40.9428751495	        0.0000000000	
        0.0200000000	        0.0000000000	        0.0000000000	        0.0000000000	        0.0000000000	        0.0000000000	        0.0000000000	      -13.4514375850	       45.9847333285	     -105.9161001171	      -28.8287851092	       30.4652025484	      -29.8493880021	       56.8140985967	       57.9585871114	       -1.4905328375	        0.0000000000	
        0.0300000000	        0.0000000000	        0.0000000000	        0.0000000000	        0.0000000000	        0.0000000000	        0.0000000000	       18.8670902925	      -16.1402832915	     -104.3877802010	        1.2410637133	      -15.9491815151	      -12.7566012693	      -20.8540622023	       51.2362383843	        1.0544092225	        0.0000000000	
        0.0400000000	        0.0000000000	        0.0000000000	        0.0000000000	        0.0000000000	        0.0000000000	        0.0000000000	        7.4932264836	      -17.1970005025	      -25.8587800068	       62.5565890554	      -27.9832610741	       18.4872245253	       33.4678049355	       59.4562764015	      -12.7467116003	        0.0000000000	
        0.0500000000	        0.0000000000	        0.0000000000	        0.0000000000	        0.0000000000	        0.0000000000	        0.0000000000	        1.7584517160	       45.8026211593	      -41.2253553509	      101.2295572878	      -37.4173367761	       -6.5343956909	       42.2807792146	      -37.3666829258	       53.1075870599	        0.0000000000	
        0.0600000000	        0.0000000000	        0.0000000000	        0.0000000000	        0.0000000000	        0.0000000000	        0.0000000000	       -0.1121635428	       -4.3420827506	      -12.3541570609	      -32.1000232846	      -27.0176767181	      -35.0739692997	       27.0549579140	      -34.2574147430	        9.5968926116	        0.0000000000	
        0.0700000000	        0.0000000000	        0.0000000000	        0.0000000000	        0.0000000000	        0.0000000000	        0.0000000000	      -25.8561054915	        0.8864332594	      -94.2482851433	       21.1357791740	      -11.2824007796	      -23.5378623631	       38.3254549775	      -59.8245912962	       24.6545113091	        0.0000000000	
        0.0800000000	        0.0000000000	        0.0000000000	        0.0000000000	        0.0000000000	        0.0000000000	        0.0000000000	      -20.7501946520	       59.9894958278	      -43.5459483453	       78.1015976265	       30.7546768480	      -13.6433805072	       17.6148751457	      -20.9978065504	      -43.2768412537	        0.0000000000	
        0.0900000000	        0.0000000000	        0.0000000000	        0.0000000000	        0.0000000000	        0.0000000000	        0.0000000000	       16.9076162059	       56.8289436718	      -32.0848185833	      -33.2564570301	       37.9432243434	      -10.0303119970	      -47.6432158780	      -53.8270851231	       23.3174793368	        0.0000000000	
        0.1000000000	        0.0000000000	        0.0000000000	        0.0000000000	        0.0000000000	        0.0000000000	        0.0000000000	        3.3792006219	       -5.2970117985	        1.0173390011	       83.5972255861	      -18.2594013956	       17.5432310770	      -20.1395180316	        7.9209840863	      -44.1515213460	        0.0000000000	
        0.1100000000	        0.0000000000	        0.0000000000	        0.0000000000	        0.0000000000	        0.0000000000	        0.0000000000	       15.9072738231	       47.2524485674	      -54.2886194265	       91.7736121466	       28.5119726962	        8.9604028978	        9.3498313857	      -23.5899885604	        3.7938048330	        0.0000000000	
        0.1200000000	        0.0000000000	        0.0000000000	        0.0000000000	        0.0000000000	        0.0000000000	        0.0000000000	       10.0097241055	       50.5541428795	        1.9162570164	      -62.9863119266	       -6.6616484468	       33.5350806986	       -6.9662324053	       35.9580897164	       57.5484313777	        0.0000000000	
        0.1300000000	        0.0000000000	        0.0000000000	        0.0000000000	        0.0000000000	        0.0000000000	        0.0000000000	        3.2697911586	       46.0799090353	      -74.8887059182	        2.1660745307	       20.7026169339	       -4.9584637354	      -25.1195178970	      -48.5513368920	       46.0150369192	        0.0000000000	
        0.1400000000	        0.0000000000	        0.0000000000	        0.0000000000	        0.0000000000	        0.0000000000	        0.0000000000	      -19.1845919064	        2.0050585869	      -67.3938356741	      -34.9416668357	      -20.0776593151	      -15.8148462555	        4.8401106078	      -35.9889945870	      -11.5773605846	        0.0000000000	
        0.1500000000	        0.0000000000	        0.0000000000	        0.0000000000	        0.0000000000	        0.0000000000	        0.0000000000	       21.8543658391	       44.4222983764	      -46.2866572006	      117.9645510075	        9.2587601900	       -9.5256504397	       -4.7456273762	       38.9769337314	       28.1938386143	        0.0000000000	
        0.1600000000	        0.0000000000	        0.0000000000	        0.0000000000	        0.0000000000	        0.0000000000	        0.0000000000	       -1.2989349419	       33.6229881644	      -72.1184330182	      -36.0014392347	      -17.1938043838	       -2.6837237206	      -43.7653995648	        7.8969948113	      -32.7662138955	        0.0000000000	
